<svg width="16" height="16" viewBox="0 0 16 16" fill="none" xmlns="http://www.w3.org/2000/svg">
<path d="M9.98334 8.00013C9.98334 8.08902 9.96667 8.17502 9.93334 8.25813C9.9 8.34169 9.85556 8.41124 9.8 8.4668L6.73334 11.5335C6.61111 11.6557 6.45556 11.7168 6.26667 11.7168C6.07778 11.7168 5.92222 11.6557 5.8 11.5335C5.67778 11.4112 5.61667 11.2557 5.61667 11.0668C5.61667 10.8779 5.67778 10.7224 5.8 10.6001L8.4 8.00013L5.8 5.40013C5.67778 5.27791 5.61667 5.12235 5.61667 4.93346C5.61667 4.74457 5.67778 4.58902 5.8 4.4668C5.92222 4.34457 6.07778 4.28346 6.26667 4.28346C6.45556 4.28346 6.61111 4.34457 6.73334 4.4668L9.8 7.53346C9.86667 7.60013 9.91378 7.67235 9.94134 7.75013C9.96934 7.82791 9.98334 7.91124 9.98334 8.00013Z" fill="#858585"/>
</svg>
