<svg width="34" height="34" viewBox="0 0 34 34" fill="none" xmlns="http://www.w3.org/2000/svg">
<path d="M12 1H4C2.34315 1 1 2.34315 1 4V12C1 13.6569 2.34315 15 4 15H12C13.6569 15 15 13.6569 15 12V4C15 2.34315 13.6569 1 12 1Z" fill="#08526C" stroke="#08526C" stroke-width="2"/>
<path d="M12 19H4C2.34315 19 1 20.3431 1 22V30C1 31.6569 2.34315 33 4 33H12C13.6569 33 15 31.6569 15 30V22C15 20.3431 13.6569 19 12 19Z" fill="#08526C" stroke="#08526C" stroke-width="2"/>
<path d="M30 19H22C20.3431 19 19 20.3431 19 22V30C19 31.6569 20.3431 33 22 33H30C31.6569 33 33 31.6569 33 30V22C33 20.3431 31.6569 19 30 19Z" fill="#58BBDD" stroke="#08526C" stroke-width="2"/>
<path d="M30 1H22C20.3431 1 19 2.34315 19 4V12C19 13.6569 20.3431 15 22 15H30C31.6569 15 33 13.6569 33 12V4C33 2.34315 31.6569 1 30 1Z" fill="#08526C" stroke="#08526C" stroke-width="2"/>
</svg>
