<svg width="14" height="14" viewBox="0 0 14 14" fill="none" xmlns="http://www.w3.org/2000/svg">
<path d="M7.00013 8.7349C6.92235 8.7349 6.8471 8.72031 6.77438 8.69115C6.70127 8.66198 6.64041 8.62309 6.5918 8.57448L3.90846 5.89115C3.80152 5.7842 3.74805 5.64809 3.74805 5.48281C3.74805 5.31753 3.80152 5.18142 3.90846 5.07448C4.01541 4.96753 4.15152 4.91406 4.3168 4.91406C4.48207 4.91406 4.61819 4.96753 4.72513 5.07448L7.00013 7.34948L9.27513 5.07448C9.38207 4.96753 9.51819 4.91406 9.68346 4.91406C9.84874 4.91406 9.98485 4.96753 10.0918 5.07448C10.1987 5.18142 10.2522 5.31753 10.2522 5.48281C10.2522 5.64809 10.1987 5.7842 10.0918 5.89115L7.40846 8.57448C7.35013 8.63281 7.28694 8.67403 7.21888 8.69815C7.15082 8.72265 7.07791 8.7349 7.00013 8.7349Z" fill="white"/>
</svg>
