<svg width="16" height="16" viewBox="0 0 16 16" fill="none" xmlns="http://www.w3.org/2000/svg">
<path d="M7.99999 9.98288C7.9111 9.98288 7.8251 9.96621 7.74199 9.93288C7.65844 9.89954 7.58888 9.8551 7.53333 9.79954L4.46666 6.73288C4.34444 6.61066 4.28333 6.4551 4.28333 6.26621C4.28333 6.07732 4.34444 5.92177 4.46666 5.79954C4.58888 5.67732 4.74444 5.61621 4.93333 5.61621C5.12221 5.61621 5.27777 5.67732 5.39999 5.79954L7.99999 8.39954L10.6 5.79954C10.7222 5.67732 10.8778 5.61621 11.0667 5.61621C11.2555 5.61621 11.4111 5.67732 11.5333 5.79954C11.6555 5.92177 11.7167 6.07732 11.7167 6.26621C11.7167 6.4551 11.6555 6.61066 11.5333 6.73288L8.46666 9.79954C8.39999 9.86621 8.32777 9.91332 8.24999 9.94088C8.17221 9.96888 8.08888 9.98288 7.99999 9.98288Z" fill="#181818"/>
</svg>
