<svg width="14" height="14" viewBox="0 0 14 14" fill="none" xmlns="http://www.w3.org/2000/svg">
<path d="M7.00001 8.73587C6.92223 8.73587 6.84698 8.72129 6.77426 8.69212C6.70115 8.66296 6.64029 8.62407 6.59167 8.57546L3.90834 5.89212C3.8014 5.78518 3.74792 5.64907 3.74792 5.48379C3.74792 5.31851 3.8014 5.1824 3.90834 5.07546C4.01529 4.96851 4.1514 4.91504 4.31667 4.91504C4.48195 4.91504 4.61806 4.96851 4.72501 5.07546L7.00001 7.35046L9.27501 5.07546C9.38195 4.96851 9.51806 4.91504 9.68334 4.91504C9.84862 4.91504 9.98473 4.96851 10.0917 5.07546C10.1986 5.1824 10.2521 5.31851 10.2521 5.48379C10.2521 5.64907 10.1986 5.78518 10.0917 5.89212L7.40834 8.57546C7.35001 8.63379 7.28681 8.67501 7.21876 8.69912C7.1507 8.72362 7.07779 8.73587 7.00001 8.73587Z" fill="#08526C"/>
</svg>
