<svg width="34" height="34" viewBox="0 0 34 34" fill="none" xmlns="http://www.w3.org/2000/svg">
<path d="M27.4616 13.0777H24.8461C24.845 12.0376 24.4314 11.0403 23.6958 10.3048C22.9603 9.56924 21.963 9.15557 20.9229 9.15453V6.53906C22.6564 6.54114 24.3183 7.2307 25.5441 8.45649C26.7699 9.68228 27.4595 11.3442 27.4616 13.0777Z" fill="#58BBDD"/>
<path d="M32.6923 13.0774H30.0768C30.074 10.6504 29.1087 8.32359 27.3925 6.60746C25.6764 4.89132 23.3496 3.92598 20.9226 3.92321V1.30775C24.043 1.31121 27.0347 2.55233 29.2412 4.75881C31.4477 6.96528 32.6888 9.95692 32.6923 13.0774ZM22.6658 24.1695L25.5951 21.2402C25.9873 20.848 26.4858 20.5795 27.0291 20.4679C27.5723 20.3563 28.1364 20.4066 28.6513 20.6125L32.2189 22.0406C32.7447 22.2509 33.1954 22.6141 33.5129 23.083C33.8303 23.552 34 24.1054 34 24.6717V31.1594C34.0009 31.545 33.9231 31.9267 33.7714 32.2812C33.6197 32.6357 33.3972 32.9555 33.1176 33.221C32.838 33.4866 32.5071 33.6922 32.1453 33.8255C31.7834 33.9587 31.3982 34.0167 31.0131 33.9959C6.00651 32.4397 0.956013 11.2596 0.0183635 3.14903C-0.0270496 2.75252 0.0119984 2.35089 0.13294 1.97055C0.253881 1.59022 0.453975 1.23979 0.720059 0.942334C0.986144 0.644874 1.31219 0.407117 1.67675 0.244702C2.04132 0.0822878 2.43613 -0.00110429 2.83524 1.10418e-05H9.20785C9.7742 -7.14363e-06 10.3276 0.169665 10.7965 0.487141C11.2655 0.804617 11.6286 1.25533 11.839 1.78114L13.2658 5.34864C13.4717 5.8636 13.5219 6.42764 13.4104 6.97089C13.2988 7.51414 13.0303 8.01271 12.6381 8.40482L9.70872 11.3341C9.70872 11.3341 11.3329 22.7533 22.6658 24.1695Z" fill="#58BBDD"/>
</svg>
